<svg id="devIcon" xmlns="http://www.w3.org/2000/svg" viewBox="0 0 59.04 49.69"><title>devBlogIcon</title><path id="devBlogIcon" d="M16.17,0h2.36V1a.6.6,0,0,1-.33.62,1.56,1.56,0,0,1-.76.22H16a12,12,0,0,0-3.22.38,7.8,7.8,0,0,0-2.49,1.14A5.6,5.6,0,0,0,8.69,5.24a5,5,0,0,0-.6,2.43,12.54,12.54,0,0,0,.38,3.07c.25,1,.54,2,.84,3s.6,2,.85,2.94a11.88,11.88,0,0,1,.38,3,3.71,3.71,0,0,1-.55,2,5.52,5.52,0,0,1-1.44,1.55,8.69,8.69,0,0,1-2,1.11,10.6,10.6,0,0,1-1.58.47,11.86,11.86,0,0,1,1.58.48,8.75,8.75,0,0,1,2,1.11A5.54,5.54,0,0,1,10,27.86a3.72,3.72,0,0,1,.55,2,11.91,11.91,0,0,1-.38,3c-.25,1-.54,2-.85,3s-.59,2-.84,3a12.53,12.53,0,0,0-.38,3.06,5.08,5.08,0,0,0,.6,2.46,5.73,5.73,0,0,0,1.64,1.89,7.89,7.89,0,0,0,2.49,1.25A11.85,11.85,0,0,0,16,48h1.39c.3,0,.5-.11.76,0s.33.16.33.42v1.12H16.17a19.8,19.8,0,0,1-5.1-.51,12,12,0,0,1-3.82-1.61,7.82,7.82,0,0,1-2.37-2.58,6.56,6.56,0,0,1-.82-3.21,11.54,11.54,0,0,1,.41-3.06c.27-1,.56-2,.87-2.92s.6-1.93.86-2.9a11.07,11.07,0,0,0,.4-3,3,3,0,0,0-.45-1.61,4,4,0,0,0-1.28-1.25,6.52,6.52,0,0,0-2-.77A10.92,10.92,0,0,0,.29,26H0V23.68H.29a10.52,10.52,0,0,0,2.6-.28,6.48,6.48,0,0,0,2-.83,4.14,4.14,0,0,0,1.28-1.29,3.12,3.12,0,0,0,.45-1.63,11.14,11.14,0,0,0-.4-3c-.27-1-.56-1.94-.86-2.9s-.6-1.94-.87-2.92a11.47,11.47,0,0,1-.41-3,6.49,6.49,0,0,1,.82-3.19A7.71,7.71,0,0,1,7.26,2.1,12,12,0,0,1,11.08.46,19.91,19.91,0,0,1,16.17,0ZM58.94,23.68a10.72,10.72,0,0,1-2.6-.19,6.45,6.45,0,0,1-2-.79,4.05,4.05,0,0,1-1.28-1.26,3.05,3.05,0,0,1-.45-1.62,11.11,11.11,0,0,1,.4-3c.27-1,.56-1.94.86-2.9s.6-1.94.87-2.92A11.59,11.59,0,0,0,55.17,8a6.56,6.56,0,0,0-.82-3.21A7.81,7.81,0,0,0,52,2.19,12,12,0,0,0,48.16.62a20,20,0,0,0-5.1-.47H40.35v1a.78.78,0,0,0,.51.62A2.3,2.3,0,0,0,41.8,2h1.39a12,12,0,0,1,3.22.39,7.8,7.8,0,0,1,2.49,1.15,5.6,5.6,0,0,1,1.64,1.84,5,5,0,0,1,.6,2.43,12.61,12.61,0,0,1-.38,3.07c-.25,1-.54,2-.84,3s-.6,2-.85,2.94a11.83,11.83,0,0,0-.38,3,3.71,3.71,0,0,0,.55,2,5.52,5.52,0,0,0,1.44,1.55,8.63,8.63,0,0,0,2,1.11,10.67,10.67,0,0,0,1.58.47,11.8,11.8,0,0,0-1.58.48,8.69,8.69,0,0,0-2,1.11A5.55,5.55,0,0,0,49.24,28a3.71,3.71,0,0,0-.55,2,11.81,11.81,0,0,0,.38,3c.25,1,.54,2,.85,3s.59,2,.84,3a12.5,12.5,0,0,1,.38,3,5,5,0,0,1-.6,2.43,5.61,5.61,0,0,1-1.64,1.85,7.9,7.9,0,0,1-2.49,1.26,11.85,11.85,0,0,1-3.22.5H41.8a2.22,2.22,0,0,0-.94.1c-.29.14-.51.25-.51.51v1.1h2.72a19.83,19.83,0,0,0,5.1-.5A12,12,0,0,0,52,47.54,7.75,7.75,0,0,0,54.35,45a6.51,6.51,0,0,0,.82-3.2,11.54,11.54,0,0,0-.41-3.05c-.27-1-.56-2-.87-2.92s-.6-1.93-.86-2.9a11.14,11.14,0,0,1-.4-3,3.11,3.11,0,0,1,.45-1.63A4.13,4.13,0,0,1,54.36,27a6.45,6.45,0,0,1,2-.71,10.9,10.9,0,0,1,2.6-.16H59V23.68Z" fill="#4d4d4d"/></svg>