<svg xmlns="http://www.w3.org/2000/svg" viewBox="0 0 10.04 9.16"><title>heartIcon</title><g id="Layer_2" data-name="Layer 2"><g id="heartIcon"><path id="heart" d="M0,2.91A2.86,2.86,0,0,1,.88.83,2.93,2.93,0,0,1,4,.24,3,3,0,0,1,4.9.8c.07.07.11.05.18,0A2.85,2.85,0,0,1,7.27,0,2.84,2.84,0,0,1,9.78,1.77,2.89,2.89,0,0,1,9.16,5L5.1,9.11c-.07.07-.11.08-.18,0L1.79,5.94C1.42,5.56,1,5.2.67,4.79A2.87,2.87,0,0,1,0,2.91Zm.76,0A2.18,2.18,0,0,0,1.18,4.2,8.15,8.15,0,0,0,1.93,5c1,1,2,2,3,3,.06.06.1.06.15,0C6.27,6.86,7.47,5.68,8.65,4.48a2.08,2.08,0,0,0,.56-2A2.18,2.18,0,0,0,5.75,1.22a8.13,8.13,0,0,0-.66.63C5,2,5,2,4.87,1.85L4.42,1.4A2.12,2.12,0,0,0,2.58.8,2.13,2.13,0,0,0,.76,2.95Z" fill="#ccc"/></g></g></svg>