<svg id="penBlogIcon" xmlns="http://www.w3.org/2000/svg" viewBox="0 0 59.04 49.69"><title>penBlogIcon</title><path id="penBlogIcon-2" data-name="penBlogIcon" d="M29.79.46c.13.73.22,1.42.38,2.1A51.72,51.72,0,0,0,32,9.21a40.44,40.44,0,0,0,3,6.35,32.5,32.5,0,0,0,4.93,6.52,21.63,21.63,0,0,0,3.5,3c.41.27.23.48,0,.72A17.64,17.64,0,0,0,39.72,32a23.86,23.86,0,0,0-1.24,9.45c0,.33-.08.41-.44.41H21.53c-.58,0-.56,0-.54-.54a22.34,22.34,0,0,0-3.61-14A19.8,19.8,0,0,0,16,25.61c-.17-.19-.14-.32.07-.47A30.38,30.38,0,0,0,25.1,14.58,37.51,37.51,0,0,0,28.89,4.43a29.28,29.28,0,0,0,.72-3.6A.39.39,0,0,1,29.79.46ZM29,9.86l-.05,0-.08.18a37.12,37.12,0,0,1-6.65,11.47,24.71,24.71,0,0,1-4,3.85c-.23.17-.26.3-.08.53a18.48,18.48,0,0,1,2.24,3.64A24.44,24.44,0,0,1,22.59,40c0,.53,0,.54.61.54h13c.66,0,.65,0,.66-.58a22.78,22.78,0,0,1,4.5-14.11c.16-.21.12-.33-.08-.47A22.46,22.46,0,0,1,37.74,22a36,36,0,0,1-6.28-9.94c-.3-.69-.57-1.4-.86-2.09a1,1,0,0,0-.08.42c0,4.14,0,8.28,0,12.41,0,.37.1.55.53.67,2.84.85,3.61,4.15,1.39,5.91A4.43,4.43,0,0,1,28,30a3.46,3.46,0,0,1-2.2-3.44,3.57,3.57,0,0,1,2.74-3.06c.33-.09.44-.22.44-.53,0-2,0-4,0-6Q29,13.42,29,9.86Zm-.89,15.48a1.9,1.9,0,0,0,0,3.05,2.58,2.58,0,0,0,3.32-.07,2,2,0,0,0,0-3.05A2.54,2.54,0,0,0,28.06,25.33Zm10.48,18.1c0-.62,0-.57-.62-.57H21.45c-.53,0-.53,0-.53.49,0,1.93,0,3.85,0,5.78l.12.1.49,0H38.43l.12-.09C38.55,47.22,38.54,45.34,38.54,43.43ZM54.66,6.31,54.37,6,53.19,7l.29.27ZM8.59,44.42l-.29-.27,2.24-1.86.29.27Zm4.49-3.71-.29-.27L15,38.58l.29.27ZM17.57,37l-.29-.27,2.24-1.86.29.27ZM40,18.42l-.29-.27L42,16.3l.29.27Zm4.49-3.71-.29-.27,2.24-1.86.29.27ZM49,11l-.29-.27,2.24-1.86.29.27ZM6.34,46.27,6.05,46,4.88,47l.29.27ZM54.85,4.86,53.53,5.93,54.74,7.1,56.06,6ZM4.47,48.95,3,47.51l1.63-1.32,1.49,1.44Zm-.9-1.42.93.89,1-.82-.93-.89Zm49.91-1-.29.27,1.18,1,.29-.27ZM10.83,11.25l-.29.27L8.3,9.66l.29-.27ZM15.32,15l-.29.27-2.24-1.86.29-.27Zm4.49,3.71-.29.27-2.24-1.86.29-.27ZM42.26,37.24l-.29.27-2.24-1.86.29-.27ZM46.75,41l-.29.27-2.24-1.86.29-.27Zm4.49,3.71-.29.27L48.7,43.08l.29-.27ZM5.17,6.56l-.29.27,1.18,1,.29-.27ZM56.06,47.78l-1.32-1.07-1.21,1.17,1.32,1.07Zm-50-41.6L4.61,7.62,3,6.3,4.47,4.86ZM4.59,7.1l.93-.89-1-.82-.93.89Z" fill="#4d4d4d"/></svg>