<svg xmlns="http://www.w3.org/2000/svg" viewBox="0 0 9.41 9.16"><title>siteIcon</title><g id="Layer_2" data-name="Layer 2"><g id="heartIcon"><path d="M5.21,9.14a4.55,4.55,0,0,0,3-1.53A4.38,4.38,0,0,0,9.39,4.16,4.35,4.35,0,0,0,8.16,1.47,4.7,4.7,0,0,0,4.71,0a4.4,4.4,0,0,0-.54,0,4.57,4.57,0,0,0-2.68,1.2A4.41,4.41,0,0,0,0,5.06,4.29,4.29,0,0,0,1.25,7.69,4.65,4.65,0,0,0,5.21,9.14Zm2.66-2A4.09,4.09,0,0,1,5.74,8.43s-.06,0-.1,0,0,0,0-.05a4.12,4.12,0,0,0,1-1.29A.15.15,0,0,1,6.84,7h1s.06,0,.07,0S7.89,7.08,7.87,7.1ZM8.77,5A4,4,0,0,1,8.4,6.28a.17.17,0,0,1-.18.11H7.1c-.1,0-.1,0-.08-.1A5.42,5.42,0,0,0,7.27,5c0-.11,0-.12.13-.12H8.67C8.78,4.88,8.78,4.89,8.77,5ZM8.19,2.68a.16.16,0,0,1,.16.1,4,4,0,0,1,.42,1.39c0,.09,0,.1-.09.1H7.37c-.08,0-.1,0-.11-.1A5.37,5.37,0,0,0,7,2.8c0-.11,0-.11.08-.11ZM5.92.79A4.1,4.1,0,0,1,7.8,2s0,0,0,.05,0,0-.06,0h-1A.13.13,0,0,1,6.64,2a4.48,4.48,0,0,0-.73-1L5.68.73A1.29,1.29,0,0,1,5.92.79Zm-1,.72c0-.15,0-.3,0-.45S4.93,1,5,1,5,1,5,1a3.59,3.59,0,0,1,.91,1c0,.05,0,.08,0,.08H5c-.07,0-.08,0-.08-.09S4.93,1.67,4.93,1.51Zm0,1.28c0-.1,0-.11.11-.11H6.19a.13.13,0,0,1,.14.1,5.25,5.25,0,0,1,.32,1.39c0,.07,0,.1-.09.1H5c-.1,0-.11,0-.11-.11Q4.93,3.48,4.93,2.79ZM5,4.88H6.55c.1,0,.11,0,.1.11a5,5,0,0,1-.29,1.34.09.09,0,0,1-.1.07H5c-.06,0-.09,0-.09-.08q0-.67,0-1.34C4.93,4.89,5,4.88,5,4.88Zm-.1,2.71c0-.16,0-.31,0-.47S5,7,5,7h.9C6,7,6,7,6,7.1a3.41,3.41,0,0,1-1,1s0,0-.08,0,0-.06,0-.09S4.93,7.74,4.93,7.58Zm-1.49.78A4.09,4.09,0,0,1,1.53,7.09s0,0,0-.07,0,0,.07,0h1a.11.11,0,0,1,.12.07,4.06,4.06,0,0,0,.85,1.24l0,0A.08.08,0,0,1,3.45,8.37ZM2.84,4.88H4.21c.1,0,.11,0,.11.11,0,.43,0,.87,0,1.3,0,.08,0,.11-.11.11H3.11A.11.11,0,0,1,3,6.3,5.91,5.91,0,0,1,2.75,5C2.74,4.89,2.78,4.88,2.84,4.88Zm-.09-.74A5.39,5.39,0,0,1,3,2.79a.14.14,0,0,1,.16-.11h1c.11,0,.12,0,.12.11q0,.68,0,1.37c0,.1,0,.1-.11.1H2.87C2.75,4.25,2.75,4.26,2.75,4.14Zm1.55,4s0,0-.07,0a2.67,2.67,0,0,1-.63-.62,3.93,3.93,0,0,1-.28-.43c0-.06,0-.08,0-.08h.87c.06,0,.08,0,.08.09s0,.33,0,.51h0c0,.16,0,.33,0,.49S4.33,8.16,4.3,8.17ZM4.23,1s0,0,.07,0,0,0,0,.07,0,.3,0,.45,0,.29,0,.44,0,.1-.09.1h-.8c-.07,0-.08,0,0-.08A3.28,3.28,0,0,1,4.23,1ZM1.6,2A4.09,4.09,0,0,1,3.49.79h.07l-.31.33A4,4,0,0,0,2.7,2a.15.15,0,0,1-.15.1H1.64s-.05,0-.06,0S1.59,2,1.6,2Zm-1,2.17a4,4,0,0,1,.42-1.38.15.15,0,0,1,.16-.09H2.3c.1,0,.11,0,.08.1a6,6,0,0,0-.24,1.4c0,.07,0,.09-.1.09H.73C.64,4.27.63,4.25.64,4.16ZM1,6.31A4,4,0,0,1,.63,5c0-.1,0-.11.1-.11H2c.08,0,.1,0,.11.1a6.3,6.3,0,0,0,.21,1.31c0,.1,0,.11-.08.11H1.16A.13.13,0,0,1,1,6.31Z" fill="#ccc"/></g></g></svg>