<svg xmlns="http://www.w3.org/2000/svg" class="headerName" viewBox="0 0 468.7 55"><path fill="#fff" d="M52.81 53.23h-7.4a3.16 3.16 0 0 1-2-.62 3.87 3.87 0 0 1-1.17-1.55l-3.84-10.5H17.06l-3.84 10.5a3.41 3.41 0 0 1-1.1 1.49 3.08 3.08 0 0 1-2 .68H2.61L22.86 1.78h9.74zM35.91 33.8l-6.26-17.11q-.46-1.14-1-2.7t-1-3.38q-.46 1.81-1 3.4t-1 2.76l-6.23 17zM55.42 55h-10a4.9 4.9 0 0 1-3.14-1 5.64 5.64 0 0 1-1.7-2.25v-.08l-3.42-9.33H18.3l-3.42 9.33a5.15 5.15 0 0 1-1.64 2.25A4.82 4.82 0 0 1 10.08 55H0L21.64 0h12.18zm-11.56-4.6a2.09 2.09 0 0 0 .63.81 1.48 1.48 0 0 0 .92.24h4.79L31.39 3.56h-7.32L5.22 51.45h4.86a1.3 1.3 0 0 0 .9-.27 1.7 1.7 0 0 0 .56-.71l4.28-11.69h23.8zm-5.4-14.82H17l7.11-19.47c.29-.74.6-1.63.92-2.64s.63-2.13.93-3.3l1.66-6.51 1.78 6.48c.33 1.19.65 2.3 1 3.31s.6 1.85.9 2.55v.06zM22.09 32h11.28L28 17.33l-.27-.69-.29.75zm67.62 13.33v7.9H59.57V1.78h9.57v43.55zM91.49 55h-33.7V0h13.13v43.55h20.57zm-30.14-3.55h26.58v-4.34H67.36V3.56h-6zm44.79-42.06v14.27h18V31h-18v14.58H129v7.65H96.54V1.78H129v7.61zM130.76 55h-36V0h36v11.17h-22.84v10.71h18V32.8h-18v11h22.84zm-32.44-3.55h28.89v-4.1h-22.85v-18.1h18v-3.81h-18V7.61h22.84V3.56H98.32zm89.14 1.78h-9.53a2.36 2.36 0 0 1-1.58-.5 4.09 4.09 0 0 1-.94-1.14l-11.93-19.75a7.07 7.07 0 0 1-.68 1.53l-11.42 18.22a7.28 7.28 0 0 1-1 1.12 2 2 0 0 1-1.44.52H140l17.08-26.47-16.4-25h9.53a2.93 2.93 0 0 1 1.44.27 2.7 2.7 0 0 1 .84.87l11.71 18.86a15.12 15.12 0 0 1 .85-1.78L175.82 3.1a3 3 0 0 1 .85-1 2 2 0 0 1 1.17-.32H187l-16.55 24.58zm3.23 1.77h-12.77a4.1 4.1 0 0 1-2.73-.92 5.88 5.88 0 0 1-1.33-1.6l-10.27-17-10.76 17.13a9.09 9.09 0 0 1-1.21 1.39 3.8 3.8 0 0 1-2.62 1h-12.2L155 26.76 137.41 0h12.83a4.47 4.47 0 0 1 2.36.52 4.45 4.45 0 0 1 1.4 1.43l10.1 16.26 10.2-16a4.75 4.75 0 0 1 1.36-1.57 3.76 3.76 0 0 1 2.19-.64h12.49l-17.77 26.39zM163 27.57l14 23.15a2.3 2.3 0 0 0 .54.64.82.82 0 0 0 .43.08h6.3l-15.9-25.11 15.28-22.77h-5.8a.63.63 0 0 0-.19 0 1.49 1.49 0 0 0-.3.41v.06L166.6 20.91a13.38 13.38 0 0 0-.73 1.53l-1.31 3.27L151 3.86a1.34 1.34 0 0 0-.21-.26 2.8 2.8 0 0 0-.56 0H144l15.23 23.19-15.94 24.7H149a.47.47 0 0 0 .23 0 5.53 5.53 0 0 0 .71-.81l11.39-18.17a5.34 5.34 0 0 0 .49-1.13zm92.4-25.79v51.45h-4.91a4.32 4.32 0 0 1-1.9-.37 4.44 4.44 0 0 1-1.48-1.26l-26.86-34.3q.21 2.35.21 4.34v31.59H212V1.78h5a9 9 0 0 1 1 .05 2.53 2.53 0 0 1 .78.21 2.58 2.58 0 0 1 .66.46 7.49 7.49 0 0 1 .71.8l27 34.44q-.11-1.25-.18-2.46t.03-2.23V1.78zM257.18 55h-6.69a6.08 6.08 0 0 1-2.68-.55 6.21 6.21 0 0 1-2.09-1.75l-23.48-30V55h-12V0H217a10.65 10.65 0 0 1 1.26.07 4.32 4.32 0 0 1 1.33.37 4.36 4.36 0 0 1 1.12.78 9.14 9.14 0 0 1 .89 1l23.54 30.06V0h12zm-39.25-43.55l30.58 39a2.76 2.76 0 0 0 .86.76 2.58 2.58 0 0 0 1.12.19h3.13V3.56h-4.87v29.49c0 .66 0 1.38.07 2.14s.1 1.59.17 2.41l.51 6-30.66-39.19a5.68 5.68 0 0 0-.53-.6.83.83 0 0 0-.2-.15.8.8 0 0 0-.23-.05 7.27 7.27 0 0 0-.84 0h-3.24v47.84h4.87V21.63c0-1.27-.07-2.68-.21-4.18zm94.43 41.78H305a3.16 3.16 0 0 1-2-.62 3.87 3.87 0 0 1-1.17-1.55l-3.84-10.5H276.6l-3.84 10.5a3.41 3.41 0 0 1-1.1 1.49 3.08 3.08 0 0 1-2 .68h-7.47L282.4 1.78h9.75zm-16.9-19.43l-6.26-17.11q-.46-1.14-1-2.7t-1-3.38q-.46 1.81-1 3.4t-1 2.76l-6.23 17zM315 55h-10a4.9 4.9 0 0 1-3.14-1 5.64 5.64 0 0 1-1.7-2.25v-.08l-3.42-9.33h-18.9l-3.42 9.33a5.15 5.15 0 0 1-1.64 2.25 4.82 4.82 0 0 1-3.15 1.08h-10.09l21.65-55h12.17zm-11.59-4.6a2.09 2.09 0 0 0 .63.81 1.48 1.48 0 0 0 .92.24h4.79L290.94 3.56h-7.32l-18.85 47.89h4.86a1.3 1.3 0 0 0 .9-.27 1.71 1.71 0 0 0 .56-.71l4.28-11.69h23.8zM298 35.58h-21.45l7.11-19.47c.29-.74.6-1.63.92-2.64s.63-2.13.93-3.3l1.66-6.51 1.83 6.47c.33 1.19.66 2.3 1 3.31s.62 1.86.91 2.57v.06zM281.64 32h11.28l-5.38-14.69-.27-.69-.28.75zm54.2-30.24A29.38 29.38 0 0 1 344.77 3 17.21 17.21 0 0 1 351 6.37a13.41 13.41 0 0 1 3.65 5.19 17.9 17.9 0 0 1 1.19 6.62 18.28 18.28 0 0 1-1.25 6.82 14.21 14.21 0 0 1-3.74 5.35 17.37 17.37 0 0 1-6.24 3.49 27.88 27.88 0 0 1-8.77 1.25h-7.15v18.14h-9.57V1.78zm0 25.87a14.41 14.41 0 0 0 4.59-.66 8.7 8.7 0 0 0 3.26-1.89 7.63 7.63 0 0 0 1.94-3 11.44 11.44 0 0 0 .64-3.93 10.38 10.38 0 0 0-.64-3.74 7.39 7.39 0 0 0-1.92-2.85 8.55 8.55 0 0 0-3.24-1.8 15.32 15.32 0 0 0-4.63-.62h-7.15v18.5zM330.47 55h-13.13V0h18.5a31.26 31.26 0 0 1 9.47 1.29A19 19 0 0 1 352.17 5a15.24 15.24 0 0 1 4.12 5.87 19.75 19.75 0 0 1 1.32 7.27 20.14 20.14 0 0 1-1.37 7.51 16 16 0 0 1-4.2 6 19.2 19.2 0 0 1-6.87 3.85 29.76 29.76 0 0 1-9.33 1.34h-5.37zm-9.57-3.56h6v-18.1h8.93a26.26 26.26 0 0 0 8.17-1.16 15.69 15.69 0 0 0 5.61-3.12 12.52 12.52 0 0 0 3.27-4.69 16.6 16.6 0 0 0 1.12-6.19 16.21 16.21 0 0 0-1.07-6 11.71 11.71 0 0 0-3.17-4.51 15.53 15.53 0 0 0-5.59-3 27.76 27.76 0 0 0-8.39-1.12h-14.89zm14.94-22h-8.93V7.4h8.93a17.16 17.16 0 0 1 5.16.71 10.35 10.35 0 0 1 3.9 2.18 9.19 9.19 0 0 1 2.38 3.52 12.19 12.19 0 0 1 .76 4.37 13.26 13.26 0 0 1-.75 4.54 9.43 9.43 0 0 1-2.39 3.67 10.5 10.5 0 0 1-3.9 2.28 16.24 16.24 0 0 1-5.16.75zm-5.37-3.56h5.37a12.73 12.73 0 0 0 4-.57 7 7 0 0 0 2.6-1.49 5.82 5.82 0 0 0 1.49-2.3 9.73 9.73 0 0 0 .53-3.32 8.67 8.67 0 0 0-.52-3.1 5.58 5.58 0 0 0-1.46-2.17 6.84 6.84 0 0 0-2.58-1.41 13.65 13.65 0 0 0-4.09-.54h-5.37zm44 27.36h-9.61V1.78h9.61zm1.75 1.76h-13.17V0h13.16zm-9.61-3.56h6V3.56h-6zm27.25-42.05v14.27h18V31h-18v14.58h22.84v7.65h-32.44V1.78h32.45v7.61zM418.48 55h-36V0h36v11.17h-22.84v10.71h18V32.8h-18v11h22.84zM386 51.45h28.89v-4.1h-22.8v-18.1h18v-3.81h-18V7.61h22.84V3.56H386zm79.3 1.78h-8.6a3.79 3.79 0 0 1-3.56-1.92l-10.82-16.48a3.8 3.8 0 0 0-1.32-1.32 4.68 4.68 0 0 0-2.15-.39h-4.09v20.1h-9.57V1.78h15.69a32.62 32.62 0 0 1 9 1.09 17.2 17.2 0 0 1 6.15 3 11.9 11.9 0 0 1 3.54 4.68 15.39 15.39 0 0 1 1.14 6 15.54 15.54 0 0 1-.77 4.91 14.21 14.21 0 0 1-2.21 4.2 14.86 14.86 0 0 1-3.58 3.34 17.84 17.84 0 0 1-4.82 2.24A9.38 9.38 0 0 1 451 32.5a9 9 0 0 1 1.42 1.73zm-24.62-27a14.81 14.81 0 0 0 4.71-.68 9.11 9.11 0 0 0 3.31-1.87 7.5 7.5 0 0 0 1.94-2.83 9.78 9.78 0 0 0 .64-3.59 7.31 7.31 0 0 0-2.58-6q-2.58-2.1-7.88-2.1h-6.12v17.1zM468.7 55h-12a5.54 5.54 0 0 1-5.07-2.76l-10.8-16.43a2.09 2.09 0 0 0-.69-.73 3.06 3.06 0 0 0-1.31-.18h-2.31V55h-13.13V0h17.47a34.52 34.52 0 0 1 9.48 1.16 19 19 0 0 1 6.78 3.37 13.72 13.72 0 0 1 4.06 5.37 17.23 17.23 0 0 1 1.28 6.68 17.39 17.39 0 0 1-.86 5.42 16.06 16.06 0 0 1-2.48 4.72 16.7 16.7 0 0 1-4 3.7 18.25 18.25 0 0 1-2.31 1.32 11.26 11.26 0 0 1 1.11 1.46zM433 31.34h5.87a6.29 6.29 0 0 1 3 .6 5.56 5.56 0 0 1 2 1.91l10.87 16.56a2 2 0 0 0 2 1H462l-11-16.22a7.28 7.28 0 0 0-1.14-1.39 7.64 7.64 0 0 0-1.38-1l-3.56-2.05 3.93-1.19a16.16 16.16 0 0 0 4.34-2 13.16 13.16 0 0 0 3.14-2.91 12.51 12.51 0 0 0 1.93-3.68 13.84 13.84 0 0 0 .68-4.35 13.69 13.69 0 0 0-1-5.31 10.06 10.06 0 0 0-3-4 15.53 15.53 0 0 0-5.53-2.71 31 31 0 0 0-8.49-1H427v47.85h6zm7.72-3.34H433V7.4h7.9c4 0 6.94.82 9 2.5a9 9 0 0 1 3.24 7.39 11.59 11.59 0 0 1-.76 4.24 9.3 9.3 0 0 1-2.43 3.47 10.9 10.9 0 0 1-3.95 2.27 16.62 16.62 0 0 1-5.28.73zm-4.2-3.56h4.2a13.12 13.12 0 0 0 4.15-.58 7.39 7.39 0 0 0 2.67-1.49 5.69 5.69 0 0 0 1.46-2.13 8.06 8.06 0 0 0 .52-2.95 5.58 5.58 0 0 0-1.92-4.63c-1.39-1.13-3.66-1.7-6.76-1.7h-4.34z"/></svg>
