<svg class="intro__items" xmlns="http://www.w3.org/2000/svg" viewBox="0 0 687.72 356.32">
  <g style="isolation:isolate">
    <path class="intro__item--alex" d="M237.93 232.11H219.1a8 8 0 0 1-5.16-1.58 9.84 9.84 0 0 1-3-3.94l-9.78-26.71h-54.23l-9.78 26.71a8.68 8.68 0 0 1-2.81 3.8 7.83 7.83 0 0 1-5.16 1.72h-19l51.52-130.93h24.8zm-43-49.44L179 139.12q-1.18-2.9-2.44-6.88t-2.54-8.6q-1.18 4.62-2.44 8.65t-2.44 7l-15.85 43.37zm49.65 54H219.1a12.47 12.47 0 0 1-8-2.57 14.36 14.36 0 0 1-4.34-5.72l-.08-.21L198 204.4h-47.9l-8.69 23.74a13.11 13.11 0 0 1-4.18 5.74 12.28 12.28 0 0 1-8 2.76h-25.71l55.08-140h31zm-29.42-11.72a5.33 5.33 0 0 0 1.6 2.07 3.76 3.76 0 0 0 2.34.6h12.19l-47.87-121.91h-18.64l-48 121.87h12.37a3.3 3.3 0 0 0 2.28-.68 4.34 4.34 0 0 0 1.41-1.8l10.89-29.75h60.56zM201.4 187.2h-54.6l18.11-49.56c.74-1.89 1.53-4.15 2.34-6.72s1.61-5.42 2.38-8.41l4.23-16.57 4.53 16.49c.83 3 1.67 5.86 2.48 8.43s1.59 4.74 2.32 6.55l.06.15zm-41.65-9.05h28.7l-13.68-37.4q-.34-.84-.69-1.76-.37 1-.73 1.92zM331.82 212v20.1h-76.69V101.18h24.36V212zm4.53 24.63H250.6v-140H284v110.85h52.33zm-76.69-9.05h67.64v-11H275V105.71h-15.3zm114-107v36.31h45.82v18.74h-45.83v37h58.13v19.47h-82.57V101.18h82.58v19.38zm62.66 116.08h-91.64v-140h91.63v28.43h-58.13v27.25H424v27.8h-45.82v28h58.13zm-82.58-9.05h73.52v-10.44h-58.14v-46.09h45.82v-9.69h-45.82V116h58.13v-10.29h-73.52zm226.85 4.53h-24.27a6 6 0 0 1-4-1.27 10.4 10.4 0 0 1-2.4-2.9l-30.33-50.25a18 18 0 0 1-1.72 3.89l-29.06 46.36a18.53 18.53 0 0 1-2.49 2.85 5.15 5.15 0 0 1-3.67 1.31h-22.76l43.46-67.37-41.74-63.56h24.27a7.44 7.44 0 0 1 3.67.68 6.87 6.87 0 0 1 2.13 2.22l29.79 48a38.48 38.48 0 0 1 2.17-4.53l27.34-43a7.7 7.7 0 0 1 2.17-2.54 5.13 5.13 0 0 1 3-.81h23.27l-42.1 62.57zm8.22 4.53h-32.49a10.42 10.42 0 0 1-7-2.34 15 15 0 0 1-3.38-4.07l-26.14-43.3-27.37 43.64a23.12 23.12 0 0 1-3.1 3.55 9.68 9.68 0 0 1-6.76 2.53h-31l46.37-71.87-44.72-68.16h32.65a10 10 0 0 1 9.59 5l25.7 41.35 26-40.82a12.1 12.1 0 0 1 3.46-3.9 9.57 9.57 0 0 1 5.56-1.62h31.77l-45.2 67.17zm-70.52-69.81l35.56 58.93a5.85 5.85 0 0 0 1.37 1.64 2.08 2.08 0 0 0 1.1.19h16l-40.42-63.95 39-58h-14.76a1.6 1.6 0 0 0-.48.05 3.78 3.78 0 0 0-.76 1l-.1.16-27.28 42.9a34.05 34.05 0 0 0-1.86 3.89l-3.33 8.32-34.51-55.6a3.4 3.4 0 0 0-.52-.65 7.14 7.14 0 0 0-1.42-.11H470l38.75 59-40.55 62.95h14.42a1.21 1.21 0 0 0 .57-.09 14.07 14.07 0 0 0 1.82-2.06l29-46.25a13.59 13.59 0 0 0 1.24-2.87z" fill="#fff"/>
    <path class="intro__item--napier" d="M127.2 206.06V337h-12.49a11 11 0 0 1-4.84-1 11.3 11.3 0 0 1-3.76-3.21l-68.37-87.26q.54 6 .54 11V337H16.83V206.06h12.76a22.86 22.86 0 0 1 2.67.14 6.44 6.44 0 0 1 2 .54 6.56 6.56 0 0 1 1.68 1.18 19.05 19.05 0 0 1 1.81 2l68.63 87.65q-.27-3.17-.45-6.25t-.18-5.7v-79.56zm4.53 135.45h-17a15.48 15.48 0 0 1-6.83-1.41 15.8 15.8 0 0 1-5.31-4.46l-59.75-76.3v82.16H12.3v-140h17.29a27.09 27.09 0 0 1 3.21.17 11 11 0 0 1 3.39.95 11.1 11.1 0 0 1 2.85 2 23.25 23.25 0 0 1 2.26 2.53l59.91 76.51v-82.13h30.51zM31.85 230.66L109.67 330a7 7 0 0 0 2.18 1.94 6.56 6.56 0 0 0 2.86.49h8V210.58h-12.4v75.06c0 1.67.06 3.5.17 5.44s.27 4.06.44 6.13l1.3 15.15-78-99.62a14.46 14.46 0 0 0-1.36-1.54 2.11 2.11 0 0 0-.51-.38 2 2 0 0 0-.59-.14 18.5 18.5 0 0 0-2.13-.1h-8.28v121.88h12.4v-75.88c0-3.23-.18-6.81-.52-10.64zM272.16 337h-18.83a8 8 0 0 1-5.16-1.58 9.84 9.84 0 0 1-3-3.94l-9.78-26.71h-54.23l-9.78 26.71a8.68 8.68 0 0 1-2.81 3.8 7.83 7.83 0 0 1-5.16 1.72h-19l51.52-130.93h24.81zm-43-49.44L213.22 244q-1.18-2.9-2.44-6.88t-2.54-8.6q-1.18 4.62-2.44 8.65t-2.44 7l-15.86 43.38zm49.65 54h-25.48a12.47 12.47 0 0 1-8-2.57 14.36 14.36 0 0 1-4.34-5.72l-.08-.21-8.69-23.74h-47.89L175.64 333a13.11 13.11 0 0 1-4.18 5.74 12.27 12.27 0 0 1-8 2.76h-25.7l55.08-140h31zm-29.42-11.72a5.32 5.32 0 0 0 1.6 2.07 3.76 3.76 0 0 0 2.34.6h12.19l-47.87-121.93H199l-48 121.88h12.37a3.3 3.3 0 0 0 2.28-.68 4.35 4.35 0 0 0 1.42-1.8L178 300.22h60.56zm-13.76-37.71H181l18.11-49.56c.74-1.89 1.53-4.15 2.34-6.72s1.61-5.41 2.38-8.41l4.22-16.57 4.53 16.49c.83 3 1.67 5.86 2.48 8.43s1.59 4.74 2.32 6.55l.06.15zM194 283h28.7L209 245.62q-.34-.84-.69-1.76-.37 1-.73 1.92zm137.94-77a74.76 74.76 0 0 1 22.73 3.08 43.79 43.79 0 0 1 15.85 8.6 34.14 34.14 0 0 1 9.25 13.32 45.56 45.56 0 0 1 3 16.84 46.53 46.53 0 0 1-3.17 17.43 36.17 36.17 0 0 1-9.51 13.63 44.2 44.2 0 0 1-15.89 8.87 71 71 0 0 1-22.32 3.17h-18.2V337h-24.32V206.06zm0 65.83a36.67 36.67 0 0 0 11.68-1.68 22.14 22.14 0 0 0 8.29-4.8 19.43 19.43 0 0 0 4.93-7.61 29.1 29.1 0 0 0 1.63-10 26.4 26.4 0 0 0-1.63-9.51 18.8 18.8 0 0 0-4.89-7.24 21.76 21.76 0 0 0-8.24-4.57 39 39 0 0 0-11.77-1.58h-18.2v47zm-13.67 69.63h-33.43v-140h47.08a79.56 79.56 0 0 1 24.08 3.36 48.45 48.45 0 0 1 17.46 9.52 38.78 38.78 0 0 1 10.49 15 50.27 50.27 0 0 1 3.35 18.5 51.24 51.24 0 0 1-3.49 19.11 40.83 40.83 0 0 1-10.68 15.31 48.87 48.87 0 0 1-17.47 9.74 75.75 75.75 0 0 1-23.74 3.4h-13.67zm-24.36-9.05h15.3v-46.04h22.73a66.82 66.82 0 0 0 20.89-2.94 39.93 39.93 0 0 0 14.29-7.94 31.85 31.85 0 0 0 8.33-11.94 42.25 42.25 0 0 0 2.85-15.75 41.26 41.26 0 0 0-2.72-15.18 29.8 29.8 0 0 0-8.07-11.49 39.52 39.52 0 0 0-14.23-7.68 70.64 70.64 0 0 0-21.34-2.86h-38zm38-56h-22.72v-56h22.73a43.66 43.66 0 0 1 13.14 1.8 26.34 26.34 0 0 1 9.93 5.55 23.38 23.38 0 0 1 6.06 9A31 31 0 0 1 363 247.8a33.74 33.74 0 0 1-1.9 11.55 24 24 0 0 1-6.1 9.35 26.72 26.72 0 0 1-10 5.8 41.32 41.32 0 0 1-13.08 1.91zm-13.67-9.05h13.67a32.39 32.39 0 0 0 10.24-1.44 17.77 17.77 0 0 0 6.62-3.8 14.82 14.82 0 0 0 3.79-5.86 24.76 24.76 0 0 0 1.36-8.46 22.05 22.05 0 0 0-1.33-7.89 14.21 14.21 0 0 0-3.72-5.53 17.41 17.41 0 0 0-6.55-3.59 34.73 34.73 0 0 0-10.4-1.37h-13.67zM425.9 337h-24.45V206.06h24.45zm4.53 4.53h-33.5v-140h33.5zM406 332.46h15.39V210.58H406zm73.61-107v36.31h45.82v18.74h-45.84v37h58.13V337h-82.57V206.06h82.58v19.38zm62.66 116.08h-91.65v-140h91.63V230h-58.13v27.25h45.82V285h-45.82v28h58.13zm-82.58-9.05h73.51V322h-58.13v-46h45.82v-9.69h-45.82v-45.4h58.13v-10.33h-73.53zM661.5 337h-22q-6.25 0-9.05-4.89l-27.53-41.92a9.68 9.68 0 0 0-3.4-3.35 11.9 11.9 0 0 0-5.48-1h-10.41V337h-24.36V206.06h39.93a83 83 0 0 1 22.86 2.76 43.77 43.77 0 0 1 15.66 7.74 30.3 30.3 0 0 1 9 11.91 41.37 41.37 0 0 1 1 27.75 36.17 36.17 0 0 1-5.61 10.68 37.82 37.82 0 0 1-9.05 8.42 45.4 45.4 0 0 1-12.27 5.7 23.87 23.87 0 0 1 4.35 3.21 22.92 22.92 0 0 1 3.62 4.39zm-62.66-68.63a37.68 37.68 0 0 0 12-1.72 23.17 23.17 0 0 0 8.42-4.75 19.08 19.08 0 0 0 4.93-7.2 24.88 24.88 0 0 0 1.63-9.15q0-10-6.56-15.3t-20.06-5.34h-15.57v43.46zM670 341.51h-30.5c-5.75 0-10.21-2.43-12.91-7l-27.46-41.82a5.31 5.31 0 0 0-1.75-1.85 7.78 7.78 0 0 0-3.33-.46h-5.89v51.16h-33.41v-140h44.45a87.86 87.86 0 0 1 24.12 2.94 48.43 48.43 0 0 1 17.27 8.52 34.93 34.93 0 0 1 10.33 13.67 45.89 45.89 0 0 1 1.08 30.97 40.87 40.87 0 0 1-6.32 12 42.51 42.51 0 0 1-10.13 9.43 46.45 46.45 0 0 1-5.88 3.35 28.65 28.65 0 0 1 2.83 3.71zm-90.9-60.21H594a16 16 0 0 1 7.62 1.53 14.15 14.15 0 0 1 5 4.86l27.66 42.15c.74 1.29 1.93 2.62 5.13 2.62H653l-28-41.37a18.52 18.52 0 0 0-2.9-3.53 19.44 19.44 0 0 0-3.52-2.6l-9.05-5.23 10-3a41.12 41.12 0 0 0 11.05-5.13 33.49 33.49 0 0 0 8-7.41 31.83 31.83 0 0 0 4.91-9.36 35.21 35.21 0 0 0 1.72-11.07 34.84 34.84 0 0 0-2.55-13.51 25.61 25.61 0 0 0-7.69-10.14 39.52 39.52 0 0 0-14.06-6.9 79 79 0 0 0-21.6-2.58H563.8v121.83h15.3zm19.74-8.42H579.1v-52.52h20.1c10.16 0 17.65 2.08 22.91 6.36 5.46 4.45 8.23 10.78 8.23 18.81a29.51 29.51 0 0 1-1.94 10.8 23.66 23.66 0 0 1-6.09 8.88 27.75 27.75 0 0 1-10 5.71 42.31 42.31 0 0 1-13.47 1.96zm-10.68-9.05h10.68a33.4 33.4 0 0 0 10.55-1.48 18.82 18.82 0 0 0 6.8-3.8A14.48 14.48 0 0 0 620 253a20.5 20.5 0 0 0 1.32-7.5c0-5.25-1.6-9.11-4.9-11.79-3.53-2.87-9.31-4.33-17.2-4.33h-11z" fill="#fff"/>
    <path class="intro__item--rect" fill="#fff" d="M0 166.65h687.72V274.5H0z"/>
    <text class="intro__item--ldash" transform="translate(199.9 232.45)" font-size="38.52" fill="#4d4d4d" font-family="Lato-Regular, Lato">
      --
    </text>
    <text class="intro__item--veteran" transform="translate(257.4 232.45)" font-size="38.52" fill="#4d4d4d" font-family="Lato-Regular, Lato">
      VETERAN
    </text>
    <text class="intro__item--rdash" transform="translate(459.9 232.45)" font-size="38.52" fill="#4d4d4d" font-family="Lato-Regular, Lato">
      --
    </text>
    <path class="intro__item--flag" d="M327.07 4.94l2.68 8.24h8.66l-7 5.06 2.68 8.22-7-5.1-7 5.09 2.68-8.21-7-5.06h8.66zm44.79 2.24h-29v5h29zm0 12h-29v5h29zm0 12h-55v5h55z" fill="#4d4d4d"/>
    <text class="intro__item--father" transform="translate(273.15 232.45)" font-size="38.52" fill="#4d4d4d" font-family="Lato-Regular, Lato">
      <tspan letter-spacing="-.06em">F</tspan><tspan x="19.55" y="0" letter-spacing="-.07em">A</tspan><tspan x="42.91" y="0">THER</tspan>
    </text>
    <path class="intro__item--shep" d="M361.7 19.58a2.28 2.28 0 0 0-.59 0 17.69 17.69 0 0 0-9.74-12v-.57a3.35 3.35 0 0 0 .21-.49 2.94 2.94 0 0 0 .88-3.77 2.94 2.94 0 0 0-3.9-1.35 1.67 1.67 0 0 0-1.25-1.35 1.85 1.85 0 0 0-2.22 1.26l-.19.54a7.8 7.8 0 0 0-.63-.48 1.81 1.81 0 0 0-2.65 1.08c-.06.29-.11.59-.16.88a2.56 2.56 0 0 0-2.71.24 2.2 2.2 0 0 0-.6.71 3.38 3.38 0 0 0-3 2 2.76 2.76 0 0 0 0 2 17.68 17.68 0 0 0-8.36 11.27 2.27 2.27 0 0 0-.72 0c-1.63.31-2.62 2.34-2.21 4.55a4 4 0 0 0 2.92 3.45 17.66 17.66 0 0 0 34.4 0 4.12 4.12 0 0 0 2.79-3.43c.36-2.2-.63-4.24-2.27-4.54zm1.73 4.42a3.53 3.53 0 0 1-2.15 2.81 1.94 1.94 0 0 1-.94.06 1.92 1.92 0 0 1-.69-.28q-.07.34-.15.68a16 16 0 0 1-31.16-.07q-.08-.34-.14-.69a1.91 1.91 0 0 1-1.61.33 3.46 3.46 0 0 1-2.3-2.84c-.34-1.84.48-3.54 1.84-3.8a1.89 1.89 0 0 1 .45 0 2.42 2.42 0 0 1 1.54.74q.05-.33.12-.66A16 16 0 0 1 336 9.63a3.15 3.15 0 0 0 .75.47 4.51 4.51 0 0 0 .61.22 1.66 1.66 0 0 0-.6 1.83 3.28 3.28 0 0 0 1.39 1.73 2.86 2.86 0 0 0 .44 3.34 2.89 2.89 0 0 0 4.37-.37 2.3 2.3 0 0 0 .4-1.23 3.55 3.55 0 0 0 .51.57 1.85 1.85 0 0 0 2.19.28 3.46 3.46 0 0 0 1-1 3.7 3.7 0 0 0 1.5-.81 3.38 3.38 0 0 0 1-1.85h.15a1.83 1.83 0 0 0 1.28-3.08l.01-.17.09-.29a16 16 0 0 1 8.46 10.93q.07.32.13.65a2.31 2.31 0 0 1 1.55-.64h.32c1.39.28 2.22 1.98 1.88 3.79zm-13 3.3a2.93 2.93 0 0 0-3.6-.77 6.64 6.64 0 0 1-5.85 0 2.93 2.93 0 0 0-3.6.77 3.25 3.25 0 0 0-.4 3.18 1 1 0 0 1 0 .66 3.55 3.55 0 0 0 .28 3.14 2.9 2.9 0 0 0 3.48 1.09 7 7 0 0 1 6.28 0 2.9 2.9 0 0 0 3.48-1.09 3.55 3.55 0 0 0 .28-3.14 1 1 0 0 1 0-.66 3.25 3.25 0 0 0-.4-3.15zm-8.84 6a2.53 2.53 0 0 1-2.41.92 1.81 1.81 0 0 1-1.2-1.71.9.9 0 0 1 .13-.56 2.15 2.15 0 0 0 0-2.05 1.61 1.61 0 0 1 .59-2.12 2.17 2.17 0 0 1 2.89.8 3.32 3.32 0 0 0 0 4.71zm8.07-1.3a.9.9 0 0 1 .13.56 1.81 1.81 0 0 1-1.2 1.71 2.53 2.53 0 0 1-2.41-.92 3.32 3.32 0 0 0 0-4.71 2.17 2.17 0 0 1 2.89-.8 1.61 1.61 0 0 1 .59 2.12 2.15 2.15 0 0 0 0 2.04z" fill="#4d4d4d"/>
    <text class="intro__item--designer" transform="translate(250.3 232.45)" font-size="38.52" fill="#4d4d4d" font-family="Lato-Regular, Lato">
      DESIGNER
    </text>
    <path class="intro__item--pen" d="M344.06 2.11c.1.56.17 1.08.29 1.59a39.26 39.26 0 0 0 1.36 5 30.7 30.7 0 0 0 2.29 4.87 24.67 24.67 0 0 0 3.74 5 16.42 16.42 0 0 0 2.65 2.27c.31.2.17.37 0 .55a13.39 13.39 0 0 0-2.76 4.75 18.12 18.12 0 0 0-.94 7.18c0 .25-.06.31-.33.31h-12.57c-.44 0-.43 0-.41-.41a17 17 0 0 0-2.74-10.62 15 15 0 0 0-1.07-1.33c-.13-.15-.1-.25.05-.36a23.06 23.06 0 0 0 6.88-8 28.48 28.48 0 0 0 2.87-7.71 22.23 22.23 0 0 0 .55-2.73.29.29 0 0 1 .14-.36zm-.63 7.13l-.06.14a28.18 28.18 0 0 1-5 8.71 18.76 18.76 0 0 1-3 2.92c-.17.13-.2.23-.06.4a14 14 0 0 1 1.7 2.77 18.55 18.55 0 0 1 1.69 8c0 .4 0 .41.47.41h9.87c.5 0 .5 0 .5-.44a17.29 17.29 0 0 1 3.42-10.71c.12-.16.09-.25-.06-.36a17 17 0 0 1-2.7-2.53 27.29 27.29 0 0 1-4.77-7.54c-.22-.53-.43-1.06-.65-1.59a.72.72 0 0 0-.06.32v9.42c0 .28.08.41.4.51a2.55 2.55 0 0 1 .88 4.42 3.36 3.36 0 0 1-3.35.42A2.62 2.62 0 0 1 341 21.9a2.71 2.71 0 0 1 2.08-2.32c.25-.07.33-.17.33-.4v-4.53q.03-2.71.02-5.41zM342.75 21a1.44 1.44 0 0 0 0 2.32 2 2 0 0 0 2.52-.05 1.5 1.5 0 0 0 0-2.32 1.93 1.93 0 0 0-2.52.05zm8 13.68c0-.47 0-.49-.47-.49h-12.55c-.4 0-.4 0-.4.43v4.42l.09.09h13.22l.09-.1c-.02-1.45-.02-2.91-.02-4.36zm12.19-28.13l-.22-.21-.89.74.22.21zM328 35.48l-.22-.21 1.7-1.41.22.21zm3.41-2.82l-.22-.21 1.7-1.41.22.21zm3.41-2.82l-.22-.21 1.7-1.41.22.21zm17-14.1l-.22-.21 1.7-1.41.22.21zm3.41-2.82l-.22-.21 1.7-1.41.22.21zm3.41-2.82l-.22-.21 1.7-1.41.22.21zm-32.38 26.78l-.22-.21-.89.74.22.21zm36.83-31.43l-1 .81.92.89 1-.81zm-38.24 33.46l-1.13-1.09 1.24-1 1.13 1.09zm-.68-1.08l.7.68.77-.62-.7-.68zm37.83-.75l-.22.21.89.74.22-.21zM329.67 10.3l-.22.21-1.7-1.41.22-.21zm3.41 2.82l-.22.21-1.7-1.41.22-.21zm3.41 2.82l-.22.21-1.7-1.41.22-.21zm17 14.1l-.22.21-1.7-1.41.22-.21zm3.41 2.82l-.22.21-1.68-1.43.22-.21zm3.41 2.82l-.22.21-1.7-1.41.22-.21zm-35-28.93l-.22.21.89.74.22-.21zM364 38l-1-.81-.92.89 1 .81zM326.08 6.45l-1.13 1.09-1.24-1 1.13-1.09zm-1.15.7l.7-.68-.77-.62-.7.68z" fill="#4d4d4d"/>
    <text class="intro__item--developer" transform="translate(234.52 232.45)" font-size="38.52" fill="#4d4d4d" font-family="Lato-Regular, Lato">
      DEVE<tspan x="99.85" y="0" letter-spacing="-.03em">L</tspan><tspan x="118.34" y="0" letter-spacing="0em">OPER</tspan>
    </text>
    <path class="intro__item--brackets" d="M334.48 3.16h1.66v.72a.42.42 0 0 1-.24.44 1.1 1.1 0 0 1-.54.16h-1a8.46 8.46 0 0 0-2.26.27 5.48 5.48 0 0 0-1.75.8 3.93 3.93 0 0 0-1.15 1.3 3.51 3.51 0 0 0-.42 1.71 8.81 8.81 0 0 0 .26 2.16c.18.71.38 1.41.59 2.08s.42 1.38.59 2.06a8.34 8.34 0 0 1 .27 2.09 2.61 2.61 0 0 1-.38 1.38 3.88 3.88 0 0 1-1 1.09 6.1 6.1 0 0 1-1.43.78 7.44 7.44 0 0 1-1.11.33 8.33 8.33 0 0 1 1.11.34 6.14 6.14 0 0 1 1.43.78 3.89 3.89 0 0 1 1 1.09 2.61 2.61 0 0 1 .38 1.38 8.37 8.37 0 0 1-.27 2.09c-.18.68-.38 1.38-.59 2.07s-.41 1.39-.59 2.1a8.8 8.8 0 0 0-.26 2.15 3.57 3.57 0 0 0 .42 1.72 4 4 0 0 0 1.15 1.33 5.54 5.54 0 0 0 1.75.88 8.33 8.33 0 0 0 2.26.41h1c.21 0 .35-.08.54 0s.24.11.24.3V38h-1.66a13.91 13.91 0 0 1-3.58-.36 8.42 8.42 0 0 1-2.68-1.13 5.49 5.49 0 0 1-1.67-1.81 4.61 4.61 0 0 1-.55-2.3 8.11 8.11 0 0 1 .28-2.15c.19-.68.39-1.37.61-2.05s.42-1.35.61-2a7.77 7.77 0 0 0 .28-2.07 2.14 2.14 0 0 0-.32-1.13 2.83 2.83 0 0 0-.9-.88 4.58 4.58 0 0 0-1.4-.54 7.67 7.67 0 0 0-1.82-.11h-.21v-1.68h.21a7.39 7.39 0 0 0 1.82-.2 4.55 4.55 0 0 0 1.4-.58 2.91 2.91 0 0 0 .9-.9 2.19 2.19 0 0 0 .31-1.15 7.83 7.83 0 0 0-.28-2.08c-.19-.68-.39-1.37-.61-2s-.42-1.36-.61-2a8.06 8.06 0 0 1-.27-2.22 4.56 4.56 0 0 1 .57-2.24 5.41 5.41 0 0 1 1.67-1.79 8.45 8.45 0 0 1 2.68-1.15 14 14 0 0 1 3.56-.32zm30 16.63a7.53 7.53 0 0 1-1.82-.14 4.53 4.53 0 0 1-1.4-.56 2.85 2.85 0 0 1-.9-.89 2.15 2.15 0 0 1-.31-1.14 7.8 7.8 0 0 1 .28-2.07c.19-.68.39-1.36.61-2s.42-1.36.61-2.05a8.14 8.14 0 0 0 .28-2.15 4.61 4.61 0 0 0-.57-2.25 5.49 5.49 0 0 0-1.67-1.81A8.44 8.44 0 0 0 357 3.6a14 14 0 0 0-3.58-.33h-1.91V4a.55.55 0 0 0 .36.43 1.62 1.62 0 0 0 .66.15h1a8.45 8.45 0 0 1 2.26.27 5.48 5.48 0 0 1 1.75.81A3.93 3.93 0 0 1 358.63 7a3.5 3.5 0 0 1 .37 1.67 8.86 8.86 0 0 1-.26 2.16c-.18.71-.38 1.41-.59 2.08s-.42 1.38-.59 2.06a8.31 8.31 0 0 0-.27 2.09 2.61 2.61 0 0 0 .38 1.38 3.88 3.88 0 0 0 1 1.09 6.07 6.07 0 0 0 1.43.78 7.49 7.49 0 0 0 1.11.33 8.29 8.29 0 0 0-1.11.34 6.1 6.1 0 0 0-1.43.78 3.9 3.9 0 0 0-1 1.09 2.61 2.61 0 0 0-.38 1.38 8.29 8.29 0 0 0 .27 2.09c.18.68.38 1.38.59 2.07s.41 1.39.59 2.1a8.78 8.78 0 0 1 .26 2.14 3.5 3.5 0 0 1-.42 1.71 3.94 3.94 0 0 1-1.15 1.3 5.55 5.55 0 0 1-1.75.88 8.33 8.33 0 0 1-2.26.35h-1a1.56 1.56 0 0 0-.66.07c-.2.1-.36.18-.36.36v.77h1.91a13.93 13.93 0 0 0 3.58-.35 8.45 8.45 0 0 0 2.68-1.16 5.44 5.44 0 0 0 1.67-1.79 4.57 4.57 0 0 0 .57-2.25 8.11 8.11 0 0 0-.28-2.14c-.19-.69-.39-1.37-.61-2.05s-.42-1.35-.61-2a7.82 7.82 0 0 1-.28-2.08 2.18 2.18 0 0 1 .31-1.15 2.9 2.9 0 0 1 .9-.9 4.53 4.53 0 0 1 1.4-.5 7.66 7.66 0 0 1 1.82-.11h.07v-1.8z" fill="#4d4d4d"/>
  </g>
</svg>
